<svg xmlns="http://www.w3.org/2000/svg" viewBox="0 0 800 520">
  <defs>
    <linearGradient id="bgKeyboard" x1="0" x2="1" y1="0" y2="1">
      <stop offset="0" stop-color="#0284c7"/>
      <stop offset="1" stop-color="#0f172a"/>
    </linearGradient>
  </defs>
  <rect width="800" height="520" rx="42" fill="url(#bgKeyboard)"/>
  <circle cx="120" cy="100" r="110" fill="#fff" opacity="0.09"/>
  <circle cx="675" cy="410" r="140" fill="#38bdf8" opacity="0.13"/>
  <rect x="105" y="145" width="590" height="255" rx="34" fill="#e2e8f0"/>
  <rect x="135" y="180" width="60" height="45" rx="10" fill="#0f172a"/>
  <rect x="210" y="180" width="60" height="45" rx="10" fill="#0f172a"/>
  <rect x="285" y="180" width="60" height="45" rx="10" fill="#0f172a"/>
  <rect x="360" y="180" width="60" height="45" rx="10" fill="#0f172a"/>
  <rect x="435" y="180" width="60" height="45" rx="10" fill="#0f172a"/>
  <rect x="510" y="180" width="60" height="45" rx="10" fill="#0f172a"/>
  <rect x="585" y="180" width="60" height="45" rx="10" fill="#0f172a"/>
  <rect x="155" y="245" width="60" height="45" rx="10" fill="#1e293b"/>
  <rect x="230" y="245" width="60" height="45" rx="10" fill="#1e293b"/>
  <rect x="305" y="245" width="60" height="45" rx="10" fill="#1e293b"/>
  <rect x="380" y="245" width="60" height="45" rx="10" fill="#1e293b"/>
  <rect x="455" y="245" width="60" height="45" rx="10" fill="#1e293b"/>
  <rect x="530" y="245" width="60" height="45" rx="10" fill="#1e293b"/>
  <rect x="170" y="310" width="85" height="45" rx="10" fill="#334155"/>
  <rect x="270" y="310" width="260" height="45" rx="10" fill="#0f172a"/>
  <rect x="545" y="310" width="85" height="45" rx="10" fill="#334155"/>
  <path d="M150 420h500" stroke="#fff" stroke-width="10" stroke-linecap="round" opacity="0.3"/>
</svg>