<svg xmlns="http://www.w3.org/2000/svg" viewBox="0 0 800 520">
  <defs>
    <linearGradient id="bgLaptop" x1="0" x2="1" y1="0" y2="1">
      <stop offset="0" stop-color="#0891b2"/>
      <stop offset="1" stop-color="#1e293b"/>
    </linearGradient>
    <linearGradient id="screenLaptop" x1="0" x2="1" y1="0" y2="1">
      <stop offset="0" stop-color="#67e8f9"/>
      <stop offset="1" stop-color="#2563eb"/>
    </linearGradient>
  </defs>
  <rect width="800" height="520" rx="42" fill="url(#bgLaptop)"/>
  <circle cx="650" cy="90" r="95" fill="#ffffff" opacity="0.1"/>
  <circle cx="130" cy="420" r="120" fill="#22d3ee" opacity="0.15"/>
  <rect x="180" y="110" width="440" height="285" rx="24" fill="#0f172a"/>
  <rect x="205" y="135" width="390" height="230" rx="16" fill="url(#screenLaptop)"/>
  <path d="M135 395h530l60 58c10 10 3 27-11 27H86c-14 0-21-17-11-27l60-58z" fill="#e2e8f0"/>
  <path d="M245 420h310l25 25H220l25-25z" fill="#94a3b8" opacity="0.7"/>
  <circle cx="400" cy="123" r="5" fill="#64748b"/>
  <path d="M280 210h240" stroke="#fff" stroke-width="18" stroke-linecap="round" opacity="0.9"/>
  <path d="M280 255h160" stroke="#fff" stroke-width="14" stroke-linecap="round" opacity="0.65"/>
  <path d="M280 295h210" stroke="#fff" stroke-width="14" stroke-linecap="round" opacity="0.45"/>
</svg>