<svg xmlns="http://www.w3.org/2000/svg" viewBox="0 0 800 520">
  <defs>
    <linearGradient id="bgMouse" x1="0" x2="1" y1="0" y2="1">
      <stop offset="0" stop-color="#06b6d4"/>
      <stop offset="1" stop-color="#111827"/>
    </linearGradient>
    <linearGradient id="mouseBody" x1="0" x2="1" y1="0" y2="1">
      <stop offset="0" stop-color="#f8fafc"/>
      <stop offset="1" stop-color="#94a3b8"/>
    </linearGradient>
  </defs>
  <rect width="800" height="520" rx="42" fill="url(#bgMouse)"/>
  <circle cx="170" cy="390" r="130" fill="#fff" opacity="0.1"/>
  <circle cx="640" cy="120" r="100" fill="#22d3ee" opacity="0.16"/>
  <path d="M400 78c-104 0-185 85-185 205v42c0 78 63 141 141 141h88c78 0 141-63 141-141v-42c0-120-81-205-185-205z" fill="url(#mouseBody)"/>
  <path d="M400 88v160" stroke="#0f172a" stroke-width="9" stroke-linecap="round" opacity="0.5"/>
  <rect x="382" y="122" width="36" height="74" rx="18" fill="#0891b2"/>
  <path d="M230 320c35 35 90 52 170 52s135-17 170-52" stroke="#0f172a" stroke-width="8" stroke-linecap="round" opacity="0.22"/>
  <ellipse cx="400" cy="470" rx="160" ry="20" fill="#020617" opacity="0.22"/>
</svg>