<svg xmlns="http://www.w3.org/2000/svg" viewBox="0 0 800 520">
  <defs>
    <linearGradient id="bgRouter" x1="0" x2="1" y1="0" y2="1">
      <stop offset="0" stop-color="#0891b2"/>
      <stop offset="1" stop-color="#020617"/>
    </linearGradient>
  </defs>
  <rect width="800" height="520" rx="42" fill="url(#bgRouter)"/>
  <circle cx="130" cy="120" r="120" fill="#fff" opacity="0.08"/>
  <circle cx="680" cy="390" r="150" fill="#38bdf8" opacity="0.13"/>
  <path d="M250 175l-70-105" stroke="#e2e8f0" stroke-width="18" stroke-linecap="round"/>
  <path d="M550 175l70-105" stroke="#e2e8f0" stroke-width="18" stroke-linecap="round"/>
  <rect x="170" y="230" width="460" height="165" rx="34" fill="#e2e8f0"/>
  <rect x="220" y="275" width="160" height="22" rx="11" fill="#0f172a" opacity="0.65"/>
  <circle cx="470" cy="286" r="13" fill="#22c55e"/>
  <circle cx="515" cy="286" r="13" fill="#22d3ee"/>
  <circle cx="560" cy="286" r="13" fill="#f59e0b"/>
  <rect x="235" y="330" width="330" height="26" rx="13" fill="#cbd5e1"/>
  <path d="M315 180c45-45 125-45 170 0" stroke="#fff" stroke-width="16" stroke-linecap="round" opacity="0.45"/>
  <path d="M350 145c25-25 75-25 100 0" stroke="#fff" stroke-width="14" stroke-linecap="round" opacity="0.65"/>
</svg>